<?xml version="1.0" standalone="no"?>
<!DOCTYPE svg PUBLIC "-//W3C//DTD SVG 20010904//EN"
 "http://www.w3.org/TR/2001/REC-SVG-20010904/DTD/svg10.dtd">
<svg version="1.0" xmlns="http://www.w3.org/2000/svg"
 width="598.000000pt" height="598.000000pt" viewBox="0 0 598.000000 598.000000"
 preserveAspectRatio="xMidYMid meet">
<metadata>
Created by potrace 1.14, written by Peter Selinger 2001-2017
</metadata>
<g transform="translate(0.000000,598.000000) scale(0.100000,-0.100000)"
fill="#000000" stroke="none">
<path d="M0 2990 l0 -2990 2990 0 2990 0 0 2990 0 2990 -2990 0 -2990 0 0
-2990z m3379 2405 c502 -87 962 -326 1321 -685 806 -806 959 -2043 373 -3026
-326 -547 -875 -956 -1502 -1120 -205 -53 -336 -68 -606 -69 -327 0 -484 23
-765 115 -653 213 -1168 667 -1471 1295 -101 210 -175 458 -215 725 -22 141
-24 477 -6 625 93 723 483 1357 1087 1765 246 166 604 312 895 366 212 38 270
43 510 39 190 -2 249 -7 379 -30z"/>
<path d="M2660 5245 c-248 -31 -496 -108 -731 -225 -230 -116 -382 -224 -573
-410 -203 -198 -323 -360 -447 -602 -117 -230 -200 -493 -234 -736 -20 -151
-20 -474 1 -624 43 -313 152 -615 322 -897 154 -257 426 -538 692 -715 172
-115 482 -255 665 -300 233 -58 376 -76 605 -76 387 0 708 76 1047 249 243
124 405 244 603 447 305 314 497 665 600 1099 51 218 67 582 35 817 -55 400
-231 809 -485 1128 -91 114 -303 319 -420 406 -330 245 -727 402 -1122 444
-131 14 -429 11 -558 -5z m909 -1365 c67 -12 135 -60 164 -113 l22 -42 3 -758
c2 -536 -1 -770 -9 -799 -14 -54 -64 -103 -117 -118 -24 -6 -73 -10 -109 -8
l-67 3 -23 75 c-39 124 -31 198 31 279 24 32 26 42 26 138 l0 103 -59 0 -60 0
-5 -42 c-28 -232 -46 -318 -97 -468 -17 -52 -33 -97 -35 -98 -1 -2 -44 36 -95
85 -132 127 -149 175 -108 308 11 36 31 119 45 183 23 114 24 129 24 572 0
250 4 481 10 514 15 94 88 171 177 186 69 11 222 12 282 0z m701 -65 l0 -75
40 0 40 0 0 75 0 75 150 0 150 0 0 -75 0 -75 75 0 75 0 -2 -167 -3 -168 -72
-3 -73 -3 0 -39 0 -40 80 0 80 0 0 -82 c0 -107 -28 -173 -91 -215 l-43 -28
-350 -3 c-305 -2 -357 -1 -394 14 -78 29 -131 127 -132 242 l0 72 85 0 85 0 0
40 0 40 -75 0 -75 0 0 170 0 170 75 0 75 0 0 75 0 75 150 0 150 0 0 -75z
m-1512 -197 c-8 -161 -59 -251 -157 -278 -27 -7 -230 -10 -613 -8 l-574 3 -49
25 c-39 21 -55 37 -77 79 -26 49 -28 62 -28 167 l0 114 751 0 752 0 -5 -102z
m1933 -723 c110 -78 123 -129 117 -449 -4 -233 -9 -256 -69 -315 -52 -52 -102
-71 -191 -71 l-78 0 0 30 0 30 -160 0 -160 0 0 -30 0 -30 -73 0 c-129 0 -224
69 -248 179 -7 33 -10 139 -7 289 3 197 6 242 20 268 22 40 101 112 130 118
13 3 32 7 43 10 11 2 158 4 327 3 l306 -2 43 -30z m-1801 -397 c0 -102 -3
-128 -21 -164 -26 -55 -87 -110 -136 -123 -55 -16 -1428 -15 -1474 0 -46 16
-96 64 -125 121 -21 42 -24 60 -24 168 l0 120 890 0 890 0 0 -122z"/>
<path d="M3380 3450 l0 -50 55 0 55 0 0 50 0 50 -55 0 -55 0 0 -50z"/>
<path d="M3380 3020 l0 -50 55 0 55 0 0 50 0 50 -55 0 -55 0 0 -50z"/>
<path d="M4270 3360 l0 -40 40 0 40 0 0 40 0 40 -40 0 -40 0 0 -40z"/>
<path d="M4150 2645 l0 -25 160 0 160 0 0 25 0 25 -160 0 -160 0 0 -25z"/>
<path d="M4150 2390 c0 -19 7 -20 160 -20 153 0 160 1 160 20 0 19 -7 20 -160
20 -153 0 -160 -1 -160 -20z"/>
</g>
</svg>
